<svg width="38" height="44" viewBox="0 0 38 44" fill="none" xmlns="http://www.w3.org/2000/svg">
<path d="M29.5962 39.7433C29.3411 39.868 29.0889 39.9983 28.831 40.1175C27.9273 40.5389 27.043 41.0212 26.106 41.3622C24.1182 42.0764 22.0319 42.4785 19.9211 42.5543C19.0673 42.5543 18.2135 42.6402 17.3624 42.6097C16.3979 42.6199 15.4351 42.5269 14.4904 42.3325C13.825 42.1634 13.1348 42.083 12.4861 41.8695C11.575 41.5721 10.6826 41.2203 9.81365 40.8161C9.1957 40.5143 8.60966 40.1512 8.06438 39.7322C7.34848 39.2146 6.67034 38.6467 6.03512 38.0328C5.46729 37.4337 4.93767 36.7994 4.44941 36.1338C3.76613 35.1951 3.17038 34.1957 2.66965 33.1482C2.44361 32.6891 2.25 32.2149 2.09025 31.7288C1.84075 31.0357 1.59125 30.3427 1.38611 29.6302C1.02885 28.4707 0.761923 27.2853 0.587709 26.0845C0.449098 25.02 0.274447 23.961 0.158014 22.8937C0.0887087 22.2727 0.0914831 21.6407 0.0693054 21.0114C0.0415832 20.2601 0.0138611 19.5088 0 18.7576C0 18.497 0.0582154 18.2364 0.0637598 17.973C0.0776209 17.1802 0.06376 16.3873 0.0942543 15.5945C0.124749 14.8986 0.202371 14.2084 0.285538 13.507C0.399199 12.5395 0.521175 11.5664 0.673647 10.6073C0.778991 9.94193 0.95087 9.28491 1.08671 8.62513C1.20037 8.10118 1.31126 7.57722 1.44432 7.05882C1.60511 6.44339 1.78531 5.8335 1.95441 5.22084C2.31229 3.93329 2.73795 2.66554 3.22963 1.4229C3.32666 1.17895 3.44864 0.948856 3.55953 0.713218C3.67041 0.477579 4.4799 0.28907 4.80425 0.472036C5.96696 1.15162 7.07296 1.92387 8.1115 2.78129C8.48021 3.07792 8.84891 3.37178 9.22039 3.65177C9.26427 3.67022 9.3114 3.67972 9.359 3.67972C9.4066 3.67972 9.45373 3.67022 9.49761 3.65177C10.4873 3.34128 11.4631 2.98367 12.4639 2.71753C13.3345 2.49647 14.2164 2.32249 15.1058 2.19636C15.7462 2.09933 16.4004 2.0716 17.0464 2.03834C17.878 1.99953 18.7097 1.94408 19.5275 1.97181C20.6546 2.00055 21.7791 2.09311 22.8957 2.24903C24.0478 2.41868 25.1891 2.65471 26.3139 2.95594C26.9515 3.12782 27.5808 3.3385 28.2101 3.54087C28.3114 3.5837 28.4228 3.5968 28.5313 3.57864C28.6398 3.56048 28.7409 3.5118 28.8227 3.4383C29.9316 2.54565 31.0599 1.66963 32.1827 0.793615C32.4599 0.577382 32.7371 0.366688 33.0143 0.164316C33.1029 0.0829938 33.2131 0.0290007 33.3316 0.00883563C33.4501 -0.0113294 33.572 0.00319189 33.6824 0.0506541C33.7974 0.0816294 33.9155 0.0993032 34.0345 0.103327C34.2396 0.60787 34.4753 1.12905 34.661 1.66963C34.9382 2.48466 35.2155 3.30801 35.4456 4.13967C35.7062 5.03787 35.9335 5.94716 36.1636 6.85368C36.3077 7.42198 36.4408 7.99305 36.5628 8.5669C36.7236 9.32372 36.8705 10.0861 37.0091 10.8457C37.1477 11.6053 37.2863 12.3233 37.3917 13.0634C37.4804 13.6179 37.5497 14.1723 37.6107 14.7268C37.716 15.7331 37.8324 16.7394 37.9017 17.7485C37.9627 18.5996 37.9683 19.4562 37.9877 20.31C37.9877 20.9254 38.0154 21.5436 37.9877 22.1591C37.9334 23.6191 37.7974 25.075 37.5802 26.5198C37.4146 27.5327 37.1981 28.5366 36.9315 29.5276C36.7622 30.18 36.5435 30.8186 36.2772 31.4377C35.8887 32.3846 35.4387 33.3051 34.9299 34.1933C34.3823 35.0376 33.7823 35.8468 33.1335 36.6162C32.8356 36.9474 32.5161 37.2586 32.1771 37.5477L32.1078 37.6447L32.0413 37.7001C31.9877 37.7188 31.9379 37.747 31.8944 37.7833C31.7804 37.9424 31.6534 38.0917 31.5146 38.2296C31.0849 38.5734 30.633 38.8894 30.195 39.2221C29.9871 39.394 29.7958 39.5742 29.5962 39.7433ZM18.7457 10.7625C18.6421 10.5759 18.5185 10.4011 18.377 10.2413C17.768 9.67062 17.0833 9.18648 16.3422 8.80254C15.2369 8.23902 14.0224 7.92216 12.7827 7.87385C11.4343 7.81521 10.0916 8.08257 8.86855 8.65326C7.64547 9.22396 6.57803 10.0812 5.75674 11.1522C4.93545 12.2232 4.38452 13.4765 4.15066 14.8057C3.91681 16.135 4.00692 17.501 4.41337 18.7881C4.72975 19.8299 5.26361 20.7927 5.97967 21.613C6.40797 22.1172 6.89047 22.5727 7.41845 22.9713C8.83335 24.0132 10.5379 24.5878 12.2948 24.6153C12.858 24.6081 13.4202 24.5637 13.9775 24.4822C14.9808 24.3359 15.9416 23.9788 16.7969 23.4343C16.1482 22.1813 15.4107 21.0058 14.7731 19.7528C15.6991 20.03 16.5612 20.3072 17.4345 20.5346C18.6681 20.87 19.8823 20.7175 21.0855 20.3433C21.5817 20.188 22.0835 20.0439 22.5852 19.9025C22.6838 19.8959 22.7827 19.9034 22.8791 19.9247L20.9829 23.4537C24.3096 25.5495 29.5962 24.9424 32.3268 20.8035C33.456 19.0819 33.9064 17.0026 33.5909 14.9681C33.2755 12.9335 32.2166 11.0883 30.6191 9.78945C27.3174 7.04773 22.2082 7.11427 18.7457 10.7625Z" fill="#76B73E"/>
<path d="M29.5961 39.7433C29.7957 39.5741 29.987 39.3939 30.1949 39.2332C30.6329 38.9005 31.0848 38.5845 31.5145 38.2407C31.6534 38.1028 31.7804 37.9535 31.8943 37.7944C31.9379 37.758 31.9876 37.7299 32.0412 37.7112C31.9581 37.8526 32.0634 37.9108 32.1577 37.9884C32.9256 38.4902 33.6713 39.028 34.4669 39.4799C34.5643 39.5531 34.6458 39.6454 34.7066 39.751C34.7673 39.8567 34.8059 39.9735 34.8202 40.0946C34.8344 40.2156 34.824 40.3383 34.7895 40.4551C34.755 40.572 34.6971 40.6806 34.6194 40.7745C33.8958 41.4398 33.1806 42.1163 32.4543 42.7816C32.3698 42.8666 32.2664 42.9303 32.1525 42.9677C32.0387 43.0051 31.9176 43.015 31.7992 42.9966C31.6808 42.9782 31.5684 42.9321 31.4712 42.8619C31.374 42.7918 31.2948 42.6997 31.2401 42.5931C30.766 41.7614 30.2947 40.9298 29.8179 40.0981C29.7514 39.9622 29.671 39.8541 29.5961 39.7433Z" fill="#1B8E3D"/>
<path d="M32.1078 37.6558L32.1771 37.5587L32.1078 37.6558Z" fill="#1B8E3D"/>
<path d="M18.7457 10.7625C22.2082 7.11426 27.3174 7.04773 30.6191 9.78945C32.2165 11.0883 33.2754 12.9335 33.5909 14.9681C33.9063 17.0026 33.4559 19.0819 32.3268 20.8035C29.5961 24.9424 24.3012 25.5495 20.9828 23.4537L22.879 19.9247C22.7826 19.9034 22.6837 19.8959 22.5852 19.9025C22.0834 20.0439 21.5817 20.1797 21.0854 20.3433C19.8823 20.7175 18.668 20.87 17.4344 20.5346C16.5612 20.2962 15.699 20.0272 14.7731 19.7528C15.4079 21.0058 16.1592 22.1813 16.7968 23.4343C15.9416 23.9788 14.9807 24.3359 13.9775 24.4822C13.4201 24.5637 12.858 24.6081 12.2947 24.6153C10.5379 24.5878 8.8333 24.0131 7.41839 22.9713C6.89041 22.5727 6.40791 22.1172 5.97961 21.6129C5.26355 20.7927 4.7297 19.8299 4.41331 18.7881C4.01023 17.5012 3.9226 16.1362 4.15783 14.8083C4.39305 13.4804 4.94422 12.2286 5.76484 11.1584C6.58545 10.0883 7.65143 9.23123 8.87283 8.65957C10.0942 8.08791 11.4352 7.81842 12.7826 7.87385C14.0195 7.92335 15.2311 8.24018 16.3338 8.80254C17.0749 9.18647 17.7596 9.67061 18.3686 10.2413C18.513 10.4007 18.6395 10.5755 18.7457 10.7625ZM15.943 16.7643C15.8986 14.9763 15.2416 13.5264 13.7252 12.5672C12.8841 12.0338 11.897 11.7772 10.9027 11.8334C9.90827 11.8896 8.95643 12.2557 8.18075 12.8805C7.59208 13.335 7.12857 13.9316 6.83374 14.6144C6.53891 15.2971 6.42243 16.0436 6.49525 16.7838H8.05046C8.00764 15.9721 8.27561 15.1747 8.79987 14.5536C9.32412 13.9325 10.0653 13.5345 10.8726 13.4405C11.3135 13.3942 11.7592 13.4447 12.1786 13.5883C12.598 13.732 12.981 13.9653 13.301 14.2721C13.6497 14.5803 13.919 14.9679 14.0859 15.4023C14.2529 15.8366 14.3127 16.3048 14.2602 16.7671L15.943 16.7643ZM30.9906 16.7643C31.0173 16.6738 31.0359 16.581 31.046 16.4871C31.082 15.4557 30.741 14.4465 30.0868 13.6484C29.3712 12.7087 28.3147 12.0883 27.1455 11.9213C25.8176 11.7522 24.6089 11.9601 23.5083 12.7724C22.5959 13.461 21.9558 14.4496 21.7009 15.564C21.6357 15.9671 21.6106 16.3757 21.626 16.7838H23.1729C23.3115 14.602 24.6089 13.6428 25.9451 13.4571C26.6951 13.3492 27.4578 13.5349 28.0742 13.9755C29.0611 14.6547 29.4603 15.6388 29.4603 16.7727L30.9906 16.7643Z" fill="white"/>
<path d="M15.943 16.7643H14.263C14.3155 16.302 14.2557 15.8338 14.0887 15.3994C13.9217 14.9651 13.6525 14.5774 13.3038 14.2693C12.9838 13.9625 12.6008 13.7291 12.1813 13.5855C11.7619 13.4419 11.3162 13.3914 10.8753 13.4376C10.068 13.5317 9.32689 13.9297 8.80264 14.5508C8.27838 15.1719 8.01041 15.9693 8.05323 16.7809H6.49801C6.4252 16.0408 6.54167 15.2943 6.8365 14.6115C7.13134 13.9288 7.59485 13.3321 8.18352 12.8777C8.9592 12.2529 9.91104 11.8868 10.9054 11.8306C11.8998 11.7744 12.8868 12.031 13.728 12.5644C15.2416 13.5264 15.8986 14.9762 15.943 16.7643Z" fill="#1B8E3D"/>
<path d="M30.9905 16.7671H29.4658C29.4464 15.625 29.0583 14.6492 28.0797 13.97C27.4633 13.5294 26.7006 13.3437 25.9506 13.4516C24.6033 13.6428 23.3059 14.602 23.1784 16.7782H21.601C21.5856 16.3702 21.6107 15.9616 21.6759 15.5584C21.9309 14.4441 22.571 13.4555 23.4834 12.7668C24.5922 11.9546 25.7926 11.7467 27.1205 11.9158C28.2969 12.0828 29.3593 12.7087 30.0757 13.6567C30.7299 14.4549 31.0709 15.4641 31.0349 16.4955C31.028 16.5871 31.0132 16.678 30.9905 16.7671Z" fill="#1B8E3D"/>
<path d="M19.0063 27.321C19.0063 27.321 17.6451 24.9646 16.7885 23.4399C16.1398 22.1868 15.4024 21.0114 14.7648 19.7584C15.6907 20.0356 16.5529 20.3128 17.4261 20.5401C18.6597 20.8756 19.874 20.7231 21.0771 20.3488C21.5733 20.1936 22.0751 20.0494 22.5769 19.9081C22.6754 19.9015 22.7743 19.9089 22.8707 19.9302L20.9745 23.4593L19.0063 27.321Z" fill="#1B8E3D"/>
<path d="M8.51346 28.7154C8.51346 28.7154 9.40334 32.6187 11.3439 32.6187C13.2844 32.6187 13.9193 28.7043 13.9193 28.7043C13.9193 28.7043 12.5775 31.2436 11.3439 31.2436C10.1103 31.2436 8.51346 28.7154 8.51346 28.7154Z" fill="white"/>
<path d="M16.126 34.3485C16.126 34.3485 17.0159 38.2657 18.9509 38.2657C20.8859 38.2657 21.5263 34.3485 21.5263 34.3485C21.5263 34.3485 20.1845 36.8907 18.9509 36.8907C17.7172 36.8907 16.126 34.3485 16.126 34.3485Z" fill="white"/>
<path d="M29.0306 28.7154C29.0306 28.7154 28.1407 32.6187 26.2057 32.6187C24.2707 32.6187 23.6303 28.7043 23.6303 28.7043C23.6303 28.7043 24.9721 31.2436 26.2057 31.2436C27.4393 31.2436 29.0306 28.7154 29.0306 28.7154Z" fill="white"/>
</svg>
